<svg xmlns="http://www.w3.org/2000/svg" xmlns:xlink="http://www.w3.org/1999/xlink" width="500" zoomAndPan="magnify" viewBox="0 0 375 374.999991" height="500" preserveAspectRatio="xMidYMid meet" version="1.0"><defs><g/></defs><g fill="#000000" fill-opacity="1"><g transform="translate(107.086601, 192.374987)"><g><path d="M 58.960938 -31.019531 C 58.960938 -18.480469 49.9375 -9.898438 44.21875 -2.640625 L 34.757812 6.160156 C 28.378906 11.21875 18.261719 18.039062 9.898438 18.039062 C 11 13.199219 19.578125 9.238281 23.757812 7.261719 C 26.621094 5.71875 26.621094 5.058594 30.578125 4.179688 C 34.320312 3.300781 34.101562 3.300781 33.441406 0.21875 C 32.78125 0 32.121094 0 31.460938 0 C 24.199219 0 12.761719 6.820312 8.140625 11 C 2.199219 16.28125 2.859375 23.980469 11.21875 23.980469 C 14.300781 23.980469 18.699219 22.878906 24.199219 20.019531 C 27.71875 18.480469 30.578125 16.71875 33.660156 14.519531 C 38.71875 11.441406 45.757812 5.28125 49.9375 0.660156 L 53.460938 -3.300781 C 54.78125 -4.839844 55.4375 -6.160156 56.757812 -7.699219 C 58.960938 -10.78125 60.9375 -13.859375 62.257812 -17.160156 C 65.339844 -25.078125 67.980469 -32.558594 62.480469 -40.480469 C 56.097656 -50.160156 38.71875 -51.039062 28.601562 -53.019531 C 21.558594 -54.339844 6.820312 -56.539062 6.820312 -66 C 6.820312 -90.640625 43.78125 -130.019531 70.621094 -130.019531 C 76.117188 -130.019531 77.660156 -126.5 77.660156 -121.878906 C 77.660156 -113.519531 70.398438 -102.738281 65.558594 -96.578125 L 56.980469 -86.019531 C 52.359375 -81.179688 39.820312 -66.878906 32.558594 -66.660156 C 32.339844 -67.539062 31.460938 -68.640625 30.800781 -68.640625 C 30.140625 -68.640625 29.699219 -67.980469 29.699219 -66 C 29.699219 -64.019531 32.78125 -63.800781 34.101562 -63.800781 C 41.359375 -64.679688 59.621094 -82.058594 63.800781 -87.339844 L 68.859375 -93.058594 C 69.960938 -94.597656 70.839844 -95.257812 71.9375 -97.019531 C 76.117188 -102.519531 83.378906 -113.519531 83.378906 -121.660156 C 83.378906 -126.5 83.597656 -128.699219 79.417969 -132.878906 C 76.777344 -135.519531 73.039062 -136.617188 69.300781 -136.617188 C 55 -136.617188 34.539062 -122.539062 25.078125 -113.296875 C 18.917969 -107.140625 13.859375 -100.097656 8.800781 -93.058594 C 2.421875 -83.378906 -5.28125 -65.339844 3.738281 -55.660156 C 7.261719 -51.699219 12.539062 -49.5 18.039062 -48.179688 C 33.441406 -44.441406 58.960938 -45.097656 58.960938 -31.019531 Z M 58.960938 -31.019531 "/></g></g></g><g fill="#000000" fill-opacity="1"><g transform="translate(177.485671, 192.374987)"><g><path d="M 21.339844 -40.039062 L 22.660156 -63.800781 C 22.660156 -66.4375 23.101562 -67.320312 23.320312 -69.519531 L 23.980469 -83.597656 C 23.980469 -84.480469 23.980469 -85.578125 23.980469 -86.679688 L 24.859375 -98.117188 C 25.300781 -102.300781 25.078125 -107.578125 25.300781 -110.660156 C 25.300781 -112.640625 24.859375 -120.339844 24.640625 -122.320312 C 23.757812 -125.839844 22.878906 -130.898438 19.140625 -130.898438 C 14.519531 -130.898438 9.679688 -117.039062 8.800781 -113.519531 C 8.359375 -111.097656 6.820312 -106.480469 10.121094 -106.480469 C 11.441406 -106.480469 11.660156 -107.578125 11.660156 -108.238281 C 11.441406 -110 10.78125 -108.238281 11.441406 -111.097656 C 11.878906 -113.738281 16.058594 -125.398438 19.140625 -126.5 L 19.800781 -117.699219 C 19.800781 -108.238281 18.039062 -100.097656 17.820312 -91.078125 C 17.820312 -88.21875 17.820312 -87.339844 17.601562 -84.480469 L 14.300781 -36.519531 C 14.300781 -34.320312 14.519531 -31.460938 14.300781 -29.480469 L 13.640625 -2.640625 C 13.640625 -0.441406 14.078125 -2.199219 13.859375 -0.21875 C 13.199219 6.820312 13.640625 15.621094 13.640625 23.101562 C 14.960938 23.757812 15.839844 24.199219 16.5 24.199219 C 19.800781 24.199219 19.140625 18.480469 19.578125 15.179688 C 20.019531 10.558594 19.800781 5.5 20.238281 1.320312 C 22.660156 -26.398438 31.238281 -62.039062 42.898438 -86.898438 C 43.78125 -88.4375 44.21875 -89.757812 45.097656 -91.519531 C 48.621094 -99.660156 67.539062 -135.519531 77.4375 -135.519531 C 81.839844 -135.519531 80.960938 -126.277344 71.058594 -106.699219 C 68.859375 -102.300781 66.878906 -97.898438 64.460938 -93.5 L 60.9375 -86.898438 C 58.519531 -81.398438 55 -76.117188 52.359375 -70.839844 L 46.640625 -61.160156 C 46.199219 -59.621094 45.757812 -59.179688 45.097656 -58.078125 C 40.917969 -51.917969 37.621094 -45.539062 34.101562 -38.941406 C 32.121094 -35.859375 29.039062 -32.558594 29.039062 -28.601562 C 29.039062 -26.839844 30.800781 -26.398438 32.121094 -26.398438 C 34.320312 -26.398438 36.738281 -28.601562 38.28125 -29.480469 C 44 -32.558594 52.359375 -36.078125 59.839844 -36.078125 C 63.140625 -36.078125 66.4375 -35.417969 69.078125 -33.660156 C 78.757812 -27.71875 79.640625 -14.738281 76.117188 -3.960938 C 75.460938 -2.640625 75.019531 -1.761719 74.359375 -0.441406 C 69.078125 12.761719 51.039062 26.179688 38.058594 31.460938 C 29.699219 34.539062 21.121094 36.519531 12.101562 37.179688 C 11.21875 37.179688 10.339844 37.179688 9.238281 37.179688 C 6.820312 37.179688 4.398438 37.398438 4.398438 40.039062 C 4.398438 42.238281 6.160156 42.460938 7.917969 42.460938 C 8.800781 42.460938 9.460938 42.460938 10.121094 42.460938 C 18.917969 41.578125 24.640625 41.800781 33.21875 38.941406 C 35.640625 38.28125 37.179688 37.839844 39.597656 36.738281 C 41.359375 36.300781 41.140625 36.078125 42.898438 35.417969 C 47.078125 34.101562 50.378906 31.679688 54.121094 29.257812 C 60.5 25.300781 61.597656 23.320312 66.4375 19.578125 C 68.199219 18.261719 69.078125 16.5 70.839844 14.960938 C 78.320312 7.480469 84.039062 -5.71875 84.039062 -16.28125 C 84.039062 -22.21875 80.960938 -32.78125 75.238281 -36.078125 C 74.140625 -36.960938 73.257812 -37.839844 72.160156 -38.5 C 68.417969 -40.480469 64.238281 -41.359375 59.839844 -41.359375 C 52.359375 -41.359375 44.441406 -38.71875 38.71875 -35.640625 C 39.160156 -37.839844 49.71875 -54.339844 51.917969 -58.078125 C 55.878906 -65.121094 61.378906 -73.699219 64.679688 -81.179688 C 68.859375 -90.199219 75.460938 -100.757812 79.199219 -111.097656 C 81.179688 -116.597656 81.617188 -116.597656 84.039062 -124.078125 C 87.117188 -134.199219 84.480469 -141.238281 78.320312 -141.238281 C 75.460938 -141.238281 71.5 -139.476562 67.320312 -135.738281 C 66.878906 -135.296875 67.097656 -135.519531 66.660156 -135.078125 L 64.679688 -133.097656 C 55 -121.21875 48.398438 -110 41.578125 -96.359375 C 40.699219 -94.820312 40.480469 -94.160156 39.820312 -92.617188 L 31.898438 -73.257812 C 29.699219 -67.980469 28.160156 -62.480469 26.398438 -57.199219 L 22.21875 -41.140625 C 21.558594 -39.820312 21.78125 -40.480469 21.339844 -40.039062 Z M 21.339844 -40.039062 "/></g></g></g></svg>